#!OML:ASF H:\Terrain\Patient Classification 1\Terrain2\Thursday\justin.ASF
:FULLY-SPECIFIED
:DEGREES
3653
root -3.72154 17.6382 21.6218 1728.42 -87.6295 -647.809
lowerback 6.32795 -0.0340712 -3.77853
upperback 2.64031 -0.302092 1.85981
thorax -0.792765 -0.208347 4.06721
lowerneck -13.515 -0.306747 -9.78105
upperneck 38.6639 -0.50638 3.40493
head 16.0767 -1.73677 2.98929
rclavicle 3.37934e-015 3.97569e-015
rhumerus -36.5375 -21.0241 -73.1465
rradius 18.5497
rwrist 0.514488
rhand -18.8557 12.8079
rfingers 7.12502
rthumb 7.44448 -17.0411
lclavicle 3.37934e-015 3.97569e-015
lhumerus -34.906 4.8638 83.5752
lradius 33.4963
lwrist 2.28124
lhand -13.4386 19.3773
lfingers 7.12502
lthumb 12.6703 48.973
rfemur -30.9609 -6.96994 17.3127
rtibia 28.5955
rfoot -17.2777 1.73892
rtoes 1.48025
lfemur 4.70694 4.78559 -23.5162
ltibia 15.3174
lfoot -14.2953 -9.31836
ltoes 16.3304
3654
root -3.80333 17.6296 21.6123 1726.96 -87.3793 -646.364
lowerback 6.3196 -0.0294562 -4.0105
upperback 2.65204 -0.309606 1.77105
thorax -0.773949 -0.213459 4.10674
lowerneck -13.3998 -0.24626 -9.62136
upperneck 38.6592 -0.435292 3.28101
head 16.0379 -1.70226 2.91687
rclavicle -5.96354e-015 -6.36111e-015
rhumerus -36.8848 -21.314 -72.9092
rradius 18.7236
rwrist 0.985682
rhand -18.9144 12.4535
rfingers 7.12502
rthumb 7.3878 -17.3975
lclavicle -5.96354e-015 -6.36111e-015
lhumerus -34.9282 4.95271 83.4748
lradius 33.6974
lwrist 2.41925
lhand -12.9682 18.8011
lfingers 7.12502
lthumb 13.1238 48.3681
rfemur -30.8151 -6.90758 16.9797
rtibia 27.607
rfoot -17.1232 2.5779
rtoes 1.30456
lfemur 5.11399 4.87024 -23.7172
ltibia 15.1623
lfoot -14.2515 -9.59641
ltoes 17.0723
3655
root -3.88339 17.6147 21.5986 1725.71 -87.3936 -645.025
lowerback 6.19214 0.0197076 -4.02869
upperback 2.68456 -0.240343 1.77428
thorax -0.676338 -0.181962 4.11459
lowerneck -13.4032 -0.264803 -9.63007
upperneck 38.6766 -0.429507 3.20097
head 16.0488 -1.71244 2.88463
rclavicle 2.48481e-015 8.74653e-015
rhumerus -36.9323 -20.833 -73.191
rradius 18.8464
rwrist 0.489127
rhand -19.4123 12.241
rfingers 7.12502
rthumb 6.90713 -17.6263
lclavicle 2.48481e-015 8.74653e-015
lhumerus -34.7865 5.07993 83.4614
lradius 33.8233
lwrist 2.38591
lhand -14.137 19.0842
lfingers 7.12502
lthumb 11.997 48.7204
rfemur -30.7092 -5.83972 16.6268
rtibia 26.6144
rfoot -17.0142 2.82007
rtoes 0.0820232
lfemur 5.18381 4.89947 -23.6618
ltibia 15.4534
lfoot -14.6264 -9.57351
ltoes 15.7776
3656
root -3.95815 17.5904 21.5887 1727.71 -87.9209 -646.977
lowerback 6.21975 0.150281 -3.4106
upperback 2.70939 -0.0333557 1.86493
thorax -0.689132 -0.075824 3.84486
lowerneck -13.3981 -0.410363 -9.72102
upperneck 38.7189 -0.691725 3.36975
head 16.0946 -1.81267 2.93259
rclavicle -1.98785e-016 7.95139e-016
rhumerus -37.0291 -20.7103 -73.338
rradius 18.9006
rwrist 0.135266
rhand -19.5514 12.2185
rfingers 7.12502
rthumb 6.77284 -17.6532
lclavicle -1.98785e-016 7.95139e-016
lhumerus -34.4338 4.98673 83.4407
lradius 33.5708
lwrist 2.53399
lhand -13.6554 18.2964
lfingers 7.12502
lthumb 12.4614 47.9049
rfemur -30.5897 -5.68498 17.2586
rtibia 25.8311
rfoot -16.9332 3.30805
rtoes -2.69699
lfemur 5.46672 4.82652 -23.0414
ltibia 15.3664
lfoot -14.845 -9.36642
ltoes 13.7829
3657
root -4.03709 17.5551 21.5777 1731.06 -88.2804 -650.274
lowerback 6.23702 0.28594 -2.87906
upperback 2.69654 0.176591 1.85872
thorax -0.731137 0.0336348 3.52331
lowerneck -13.282 -0.499512 -9.56722
upperneck 38.7277 -0.930069 3.46675
head 16.09 -1.87609 2.90786
rclavicle 9.93923e-017 3.18055e-015
rhumerus -37.2696 -21.0997 -73.1865
rradius 18.9235
rwrist 0.245104
rhand -18.9438 12.0604
rfingers 7.12502
rthumb 7.35943 -17.7916
lclavicle 9.93923e-017 3.18055e-015
lhumerus -35.0132 2.63301 84.067
lradius 35.1686
lwrist 4.79351
lhand -14.8236 19.6141
lfingers 7.12502
lthumb 11.3349 49.2878
rfemur -30.2583 -6.24093 18.0172
rtibia 25.2987
rfoot -17.055 3.83606
rtoes -4.73872
lfemur 5.80415 5.12367 -22.4742
ltibia 15.1635
lfoot -14.824 -9.79622
ltoes 13.5736
3658
root -4.11903 17.5807 21.5665 1727.78 -87.964 -646.808
lowerback 6.10105 0.298445 -3.18447
upperback 2.68377 0.180786 1.76412
thorax -0.669063 0.0342807 3.59754
lowerneck -13.3275 -0.443946 -9.39095
upperneck 38.7116 -0.791368 3.22222
head 16.079 -1.82292 2.7922
rclavicle -9.93923e-017 -1.90833e-014
rhumerus -37.2713 -20.9333 -73.2955
rradius 19.0112
rwrist 0.12115
rhand -18.7778 11.9134
rfingers 7.12502
rthumb 7.51961 -17.9329
lclavicle -9.93923e-017 -1.90833e-014
lhumerus -34.4222 4.27234 83.5117
lradius 34.4043
lwrist 3.13669
lhand -14.9936 19.7088
lfingers 7.12502
lthumb 11.171 49.3915
rfemur -30.7795 -7.02901 18.096
rtibia 25.1501
rfoot -16.9226 3.72587
rtoes -9.25716
lfemur 6.10088 5.59213 -22.6729
ltibia 14.7388
lfoot -14.6559 -10.3622
ltoes 13.4794
3659
root -4.19833 17.5745 21.5556 1722.86 -87.307 -641.778
lowerback 6.06375 0.254602 -3.9313
upperback 2.67692 0.0831747 1.68541
thorax -0.645755 -0.0187984 3.94504
lowerneck -13.4721 -0.358041 -9.55839
upperneck 38.7511 -0.53168 3.07882
head 16.1156 -1.75995 2.8041
rclavicle 8.94531e-016 5.56597e-015
rhumerus -37.2402 -20.2957 -73.5713
rradius 19.2837
rwrist -0.271455
rhand -19.0603 11.8233
rfingers 7.12502
rthumb 7.24696 -18.0326
lclavicle 8.94531e-016 5.56597e-015
lhumerus -33.5485 7.71772 82.4894
lradius 32.6303
lwrist -0.0144111
lhand -13.5102 17.6313
lfingers 7.12502
lthumb 12.6014 47.2312
rfemur -31.0722 -7.39637 17.5929
rtibia 25.2713
rfoot -17.2412 3.75381
rtoes -10.92
lfemur 6.62542 5.39029 -23.41
ltibia 14.0594
lfoot -14.3883 -10.2563
ltoes 14.2595
3660
root -4.27962 17.5649 21.542 1720.41 -86.9343 -639.261
lowerback 6.07912 0.23249 -4.36274
upperback 2.63791 0.0299346 1.63337
thorax -0.688142 -0.045546 4.13901
lowerneck -13.5322 -0.283707 -9.81871
upperneck 38.8458 -0.40195 3.24291
head 16.1689 -1.72843 2.94679
rclavicle -9.93923e-016 -8.74653e-015
rhumerus -37.2347 -19.3839 -74.0084
rradius 19.5555
rwrist -0.991818
rhand -18.9609 11.5731
rfingers 7.12502
rthumb 7.34294 -18.2794
lclavicle -9.93923e-016 -8.74653e-015
lhumerus -34.1903 6.20362 82.9604
lradius 33.9607
lwrist 1.87455
lhand -12.9936 18.2082
lfingers 7.12502
lthumb 13.0994 47.7768
rfemur -31.117 -7.15918 17.135
rtibia 25.5505
rfoot -17.3405 4.01767
rtoes -8.51283
lfemur 7.40427 5.4302 -23.7423
ltibia 12.9939
lfoot -13.8084 -10.4328
ltoes 15.9212
3661
root -4.35984 17.5607 21.5233 1719.57 -87.2542 -638.294
lowerback 5.95553 0.217759 -4.09909
upperback 2.6541 0.0302978 1.7195
thorax -0.603399 -0.0466653 4.07871
lowerneck -13.6714 -0.234073 -9.83039
upperneck 38.9115 -0.318172 3.27654
head 16.2291 -1.6932 2.98062
rclavicle -6.95746e-016 -3.18055e-015
rhumerus -37.1394 -19.0134 -74.2753
rradius 19.8155
rwrist -1.17824
rhand -18.8855 11.3475
rfingers 7.12502
rthumb 7.41571 -18.5026
lclavicle -6.95746e-016 -3.18055e-015
lhumerus -34.2716 5.87184 82.999
lradius 34.4797
lwrist 2.53954
lhand -13.2105 19.2466
lfingers 7.12502
lthumb 12.8903 48.8285
rfemur -31.0849 -6.98796 17.5771
rtibia 25.6218
rfoot -16.9587 4.44455
rtoes -7.25988
lfemur 7.74465 5.87829 -23.2027
ltibia 12.6699
lfoot -13.7858 -10.8307
ltoes 14.9167
3662
root -4.43756 17.5553 21.5025 1719.03 -87.4444 -637.567
lowerback 5.75997 0.241779 -3.94246
upperback 2.65245 0.0789918 1.76022
thorax -0.501529 -0.0234335 4.02865
lowerneck -13.6292 -0.220636 -9.55613
upperneck 38.839 -0.281402 3.01851
head 16.1772 -1.66763 2.8222
rclavicle -3.97569e-016 -1.90833e-014
rhumerus -37.1246 -19.2062 -74.2915
rradius 20.0438
rwrist -0.933385
rhand -18.8828 11.3494
rfingers 7.12502
rthumb 7.41826 -18.5005
lclavicle -3.97569e-016 -1.90833e-014
lhumerus -34.1552 5.80891 83.028
lradius 34.495
lwrist 3.19429
lhand -13.3189 19.4083
lfingers 7.12502
lthumb 12.7858 48.9967
rfemur -31.0228 -7.15851 18.0633
rtibia 25.5181
rfoot -16.701 4.21462
rtoes -10.7279
lfemur 7.68721 5.40788 -23.0232
ltibia 12.9852
lfoot -14.1848 -10.2959
ltoes 13.2056
3663
root -4.51911 17.5453 21.4869 1719.39 -87.3825 -637.818
lowerback 5.70477 0.284467 -3.79705
upperback 2.60883 0.145718 1.59963
thorax -0.52244 0.0141805 3.77531
lowerneck -13.3627 -0.23064 -9.20858
upperneck 38.6794 -0.383758 2.89528
head 16.0342 -1.66821 2.68412
rclavicle 8.94531e-016 1.03368e-014
rhumerus -37.2344 -19.657 -74.302
rradius 20.1532
rwrist -0.562183
rhand -18.4209 11.7544
rfingers 7.12502
rthumb 7.86416 -18.0793
lclavicle 8.94531e-016 1.03368e-014
lhumerus -34.1391 5.53921 82.8207
lradius 34.4466
lwrist 3.50999
lhand -13.5273 19.1111
lfingers 7.12502
lthumb 12.5849 48.7121
rfemur -30.6775 -6.75089 17.8779
rtibia 25.3454
rfoot -16.3428 4.07311
rtoes -9.6736
lfemur 7.55567 5.27349 -23.0238
ltibia 13.5919
lfoot -14.312 -10.369
ltoes 13.9909
